<svg width="148" height="16" viewBox="0 0 148 16" fill="none" xmlns="http://www.w3.org/2000/svg">
<path d="M5.80683 5.14L7.3335 3.60667V10C7.3335 10.1768 7.40373 10.3464 7.52876 10.4714C7.65378 10.5964 7.82335 10.6667 8.00016 10.6667C8.17697 10.6667 8.34654 10.5964 8.47157 10.4714C8.59659 10.3464 8.66683 10.1768 8.66683 10V3.60667L10.1935 5.14C10.2555 5.20249 10.3292 5.25208 10.4104 5.28593C10.4917 5.31977 10.5788 5.3372 10.6668 5.3372C10.7548 5.3372 10.842 5.31977 10.9232 5.28593C11.0045 5.25208 11.0782 5.20249 11.1402 5.14C11.2026 5.07803 11.2522 5.00429 11.2861 4.92305C11.3199 4.84181 11.3374 4.75468 11.3374 4.66667C11.3374 4.57866 11.3199 4.49152 11.2861 4.41028C11.2522 4.32904 11.2026 4.25531 11.1402 4.19333L8.4735 1.52667C8.41009 1.46597 8.33533 1.4184 8.2535 1.38667C8.09119 1.31999 7.90914 1.31999 7.74683 1.38667C7.665 1.4184 7.59023 1.46597 7.52683 1.52667L4.86016 4.19333C4.798 4.25549 4.7487 4.32929 4.71506 4.4105C4.68142 4.49172 4.6641 4.57876 4.6641 4.66667C4.6641 4.75457 4.68142 4.84162 4.71506 4.92283C4.7487 5.00405 4.798 5.07784 4.86016 5.14C4.92232 5.20216 4.99612 5.25147 5.07733 5.28511C5.15854 5.31875 5.24559 5.33606 5.3335 5.33606C5.4214 5.33606 5.50845 5.31875 5.58966 5.28511C5.67088 5.25147 5.74467 5.20216 5.80683 5.14ZM14.0002 9.33333C13.8234 9.33333 13.6538 9.40357 13.5288 9.5286C13.4037 9.65362 13.3335 9.82319 13.3335 10V12.6667C13.3335 12.8435 13.2633 13.013 13.1382 13.1381C13.0132 13.2631 12.8436 13.3333 12.6668 13.3333H3.3335C3.15669 13.3333 2.98712 13.2631 2.86209 13.1381C2.73707 13.013 2.66683 12.8435 2.66683 12.6667V10C2.66683 9.82319 2.59659 9.65362 2.47157 9.5286C2.34654 9.40357 2.17697 9.33333 2.00016 9.33333C1.82335 9.33333 1.65378 9.40357 1.52876 9.5286C1.40373 9.65362 1.3335 9.82319 1.3335 10V12.6667C1.3335 13.1971 1.54421 13.7058 1.91928 14.0809C2.29436 14.456 2.80306 14.6667 3.3335 14.6667H12.6668C13.1973 14.6667 13.706 14.456 14.081 14.0809C14.4561 13.7058 14.6668 13.1971 14.6668 12.6667V10C14.6668 9.82319 14.5966 9.65362 14.4716 9.5286C14.3465 9.40357 14.177 9.33333 14.0002 9.33333Z" fill="#52A6F8"/>
<path d="M23.9759 8.796C23.9759 11.004 25.4879 12.084 27.3239 12.084C29.1599 12.084 30.7439 11.004 30.7439 8.796V3.624H29.0519V8.808C29.0519 9.96 28.4279 10.56 27.3479 10.56C26.2799 10.56 25.6559 9.96 25.6559 8.808V3.624H23.9759V8.796ZM34.0471 6.312V5.352H32.3671V15.168H34.0471V11.052C34.4551 11.592 35.1991 12.108 36.2431 12.108C37.9471 12.108 39.2791 10.728 39.2791 8.652C39.2791 6.576 37.9471 5.244 36.2431 5.244C35.2111 5.244 34.4431 5.748 34.0471 6.312ZM37.5631 8.652C37.5631 9.912 36.7111 10.632 35.7991 10.632C34.8991 10.632 34.0471 9.936 34.0471 8.676C34.0471 7.416 34.8991 6.72 35.7991 6.72C36.7111 6.72 37.5631 7.392 37.5631 8.652ZM40.4999 12H42.1799V3.12H40.4999V12ZM50.2597 8.676C50.2597 6.576 48.7597 5.244 46.8397 5.244C44.9197 5.244 43.4197 6.576 43.4197 8.676C43.4197 10.764 44.8717 12.108 46.7917 12.108C48.7237 12.108 50.2597 10.764 50.2597 8.676ZM45.1237 8.676C45.1237 7.344 45.9277 6.708 46.8157 6.708C47.7037 6.708 48.5317 7.344 48.5317 8.676C48.5317 9.996 47.6797 10.644 46.7917 10.644C45.8917 10.644 45.1237 9.996 45.1237 8.676ZM51.0601 8.652C51.0601 10.728 52.4041 12.108 54.0841 12.108C55.1401 12.108 55.8961 11.604 56.2921 11.028V12H57.9841V5.352H56.2921V6.3C55.8961 5.748 55.1641 5.244 54.0961 5.244C52.4041 5.244 51.0601 6.576 51.0601 8.652ZM56.2921 8.676C56.2921 9.936 55.4521 10.632 54.5281 10.632C53.6281 10.632 52.7761 9.912 52.7761 8.652C52.7761 7.392 53.6281 6.72 54.5281 6.72C55.4521 6.72 56.2921 7.416 56.2921 8.676ZM59.1929 8.652C59.1929 10.728 60.5369 12.108 62.2289 12.108C63.2729 12.108 64.0169 11.628 64.4129 11.016V12H66.1169V3.12H64.4129V6.276C63.9569 5.652 63.1169 5.244 62.2409 5.244C60.5369 5.244 59.1929 6.576 59.1929 8.652ZM64.4249 8.676C64.4249 9.936 63.5849 10.632 62.6609 10.632C61.7609 10.632 60.9089 9.912 60.9089 8.652C60.9089 7.392 61.7609 6.72 62.6609 6.72C63.5849 6.72 64.4249 7.416 64.4249 8.676ZM70.7971 12H72.5011V6.732H73.6651V5.352H72.5011V5.076C72.5011 4.332 72.7771 4.068 73.5931 4.092V2.676C71.7211 2.628 70.7971 3.384 70.7971 5.016V5.352H70.0411V6.732H70.7971V12ZM76.4338 8.688C76.4338 7.404 77.0338 7.02 78.0298 7.02H78.4738V5.256C77.5498 5.256 76.8538 5.7 76.4338 6.384V5.352H74.7538V12H76.4338V8.688ZM86.0253 8.676C86.0253 6.576 84.5253 5.244 82.6053 5.244C80.6853 5.244 79.1853 6.576 79.1853 8.676C79.1853 10.764 80.6373 12.108 82.5573 12.108C84.4893 12.108 86.0253 10.764 86.0253 8.676ZM80.8893 8.676C80.8893 7.344 81.6933 6.708 82.5813 6.708C83.4693 6.708 84.2973 7.344 84.2973 8.676C84.2973 9.996 83.4453 10.644 82.5573 10.644C81.6573 10.644 80.8893 9.996 80.8893 8.676ZM96.5577 12H98.2377V8.1C98.2377 6.264 97.1097 5.256 95.5137 5.256C94.5417 5.256 93.6657 5.772 93.2337 6.528C92.7777 5.7 91.9257 5.256 90.8937 5.256C90.0657 5.256 89.3577 5.604 88.9377 6.156V5.352H87.2577V12H88.9377V8.328C88.9377 7.272 89.5257 6.72 90.4377 6.72C91.3257 6.72 91.9137 7.272 91.9137 8.328V12H93.5937V8.328C93.5937 7.272 94.1817 6.72 95.0817 6.72C95.9697 6.72 96.5577 7.272 96.5577 8.328V12ZM102.283 7.8C102.283 10.308 104.119 12.072 106.531 12.072C108.391 12.072 109.903 11.088 110.467 9.36H108.535C108.139 10.176 107.419 10.572 106.519 10.572C105.055 10.572 104.011 9.492 104.011 7.8C104.011 6.096 105.055 5.028 106.519 5.028C107.419 5.028 108.139 5.424 108.535 6.228H110.467C109.903 4.512 108.391 3.516 106.531 3.516C104.119 3.516 102.283 5.292 102.283 7.8ZM117.758 9.576C117.758 6.624 113.462 7.56 113.462 5.88C113.462 5.196 113.954 4.872 114.614 4.896C115.334 4.908 115.778 5.34 115.814 5.892H117.662C117.554 4.38 116.378 3.504 114.662 3.504C112.934 3.504 111.71 4.416 111.71 5.928C111.698 8.964 116.018 7.872 116.018 9.684C116.018 10.284 115.55 10.704 114.758 10.704C113.978 10.704 113.534 10.26 113.486 9.588H111.686C111.71 11.172 113.054 12.084 114.794 12.084C116.702 12.084 117.758 10.896 117.758 9.576ZM122.659 10.284L120.355 3.624H118.555L121.627 12H123.667L126.739 3.624H124.951L122.659 10.284ZM130.785 12H132.489V6.732H133.653V5.352H132.489V5.076C132.489 4.332 132.765 4.068 133.581 4.092V2.676C131.709 2.628 130.785 3.384 130.785 5.016V5.352H130.029V6.732H130.785V12ZM134.742 12H136.422V5.352H134.742V12ZM135.594 4.56C136.182 4.56 136.626 4.128 136.626 3.576C136.626 3.024 136.182 2.592 135.594 2.592C134.994 2.592 134.562 3.024 134.562 3.576C134.562 4.128 134.994 4.56 135.594 4.56ZM138.082 12H139.762V3.12H138.082V12ZM144.278 6.624C145.142 6.624 145.838 7.176 145.862 8.052H142.706C142.838 7.14 143.474 6.624 144.278 6.624ZM147.434 9.912H145.622C145.406 10.356 145.01 10.716 144.29 10.716C143.45 10.716 142.778 10.164 142.694 9.18H147.554C147.59 8.964 147.602 8.748 147.602 8.532C147.602 6.552 146.246 5.244 144.326 5.244C142.358 5.244 140.99 6.576 140.99 8.676C140.99 10.764 142.394 12.108 144.326 12.108C145.97 12.108 147.074 11.136 147.434 9.912Z" fill="#52A6F8"/>
</svg>
