<svg width="20" height="20" viewBox="0 0 20 20" fill="none" xmlns="http://www.w3.org/2000/svg">
<path d="M9.99984 18.3333C8.35166 18.3333 6.7405 17.8446 5.37009 16.9289C3.99968 16.0132 2.93158 14.7117 2.30084 13.189C1.67011 11.6663 1.50509 9.99076 1.82663 8.37425C2.14817 6.75774 2.94185 5.27288 4.10728 4.10744C5.27272 2.94201 6.75758 2.14833 8.37409 1.82679C9.9906 1.50525 11.6662 1.67027 13.1889 2.30101C14.7116 2.93174 16.0131 3.99984 16.9288 5.37025C17.8444 6.74066 18.3332 8.35182 18.3332 10C18.3306 12.2094 17.4519 14.3275 15.8896 15.8898C14.3273 17.452 12.2092 18.3308 9.99984 18.3333Z" fill="#F6F9FE" fill-opacity="0.3"/>
<path d="M12.9467 8.23223L8.23261 12.9463C8.07633 13.1026 7.86437 13.1904 7.64336 13.1904C7.42234 13.1904 7.21038 13.1026 7.0541 12.9463C6.89782 12.79 6.81002 12.578 6.81002 12.357C6.81002 12.136 6.89782 11.924 7.0541 11.7678L11.7681 7.05372C11.9244 6.89744 12.1364 6.80964 12.3574 6.80964C12.5784 6.80964 12.7904 6.89744 12.9467 7.05372C13.1029 7.21 13.1907 7.42196 13.1907 7.64297C13.1907 7.86399 13.1029 8.07595 12.9467 8.23223Z" fill="#D93C6B" fill-opacity="0.7"/>
<path d="M12.9462 12.9463C12.8688 13.0237 12.7769 13.0851 12.6758 13.127C12.5747 13.1689 12.4664 13.1904 12.3569 13.1904C12.2475 13.1904 12.1391 13.1689 12.038 13.127C11.9369 13.0851 11.845 13.0237 11.7677 12.9463L7.05361 8.23223C6.89733 8.07595 6.80953 7.86399 6.80953 7.64297C6.80953 7.42196 6.89733 7.21 7.05361 7.05372C7.20989 6.89744 7.42185 6.80964 7.64287 6.80964C7.86388 6.80964 8.07584 6.89744 8.23212 7.05372L12.9462 11.7678C13.0236 11.8451 13.085 11.937 13.1269 12.0381C13.1688 12.1392 13.1903 12.2476 13.1903 12.357C13.1903 12.4665 13.1688 12.5748 13.1269 12.6759C13.085 12.777 13.0236 12.8689 12.9462 12.9463Z" fill="#D93C6B" fill-opacity="0.7"/>
</svg>
