<svg width="229" height="28" viewBox="0 0 229 28" fill="none" xmlns="http://www.w3.org/2000/svg">
<path d="M150.426 7.364V20H147.348V12.422L144.522 20H142.038L139.194 12.404V20H136.116V7.364H139.752L143.298 16.112L146.808 7.364H150.426ZM162.557 9.956V20H159.479V18.632C159.167 19.076 158.741 19.436 158.201 19.712C157.673 19.976 157.085 20.108 156.437 20.108C155.669 20.108 154.991 19.94 154.403 19.604C153.815 19.256 153.359 18.758 153.035 18.11C152.711 17.462 152.549 16.7 152.549 15.824V9.956H155.609V15.41C155.609 16.082 155.783 16.604 156.131 16.976C156.479 17.348 156.947 17.534 157.535 17.534C158.135 17.534 158.609 17.348 158.957 16.976C159.305 16.604 159.479 16.082 159.479 15.41V9.956H162.557ZM167.846 6.68V20H164.768V6.68H167.846ZM175.675 17.39V20H174.109C172.993 20 172.123 19.73 171.499 19.19C170.875 18.638 170.563 17.744 170.563 16.508V12.512H169.339V9.956H170.563V7.508H173.641V9.956H175.657V12.512H173.641V16.544C173.641 16.844 173.713 17.06 173.857 17.192C174.001 17.324 174.241 17.39 174.577 17.39H175.675ZM178.937 8.912C178.397 8.912 177.953 8.756 177.605 8.444C177.269 8.12 177.101 7.724 177.101 7.256C177.101 6.776 177.269 6.38 177.605 6.068C177.953 5.744 178.397 5.582 178.937 5.582C179.465 5.582 179.897 5.744 180.233 6.068C180.581 6.38 180.755 6.776 180.755 7.256C180.755 7.724 180.581 8.12 180.233 8.444C179.897 8.756 179.465 8.912 178.937 8.912ZM180.467 9.956V20H177.389V9.956H180.467ZM187.27 20.126C186.346 20.126 185.518 19.976 184.786 19.676C184.054 19.376 183.466 18.932 183.022 18.344C182.59 17.756 182.362 17.048 182.338 16.22H185.614C185.662 16.688 185.824 17.048 186.1 17.3C186.376 17.54 186.736 17.66 187.18 17.66C187.636 17.66 187.996 17.558 188.26 17.354C188.524 17.138 188.656 16.844 188.656 16.472C188.656 16.16 188.548 15.902 188.332 15.698C188.128 15.494 187.87 15.326 187.558 15.194C187.258 15.062 186.826 14.912 186.262 14.744C185.446 14.492 184.78 14.24 184.264 13.988C183.748 13.736 183.304 13.364 182.932 12.872C182.56 12.38 182.374 11.738 182.374 10.946C182.374 9.77 182.8 8.852 183.652 8.192C184.504 7.52 185.614 7.184 186.982 7.184C188.374 7.184 189.496 7.52 190.348 8.192C191.2 8.852 191.656 9.776 191.716 10.964H188.386C188.362 10.556 188.212 10.238 187.936 10.01C187.66 9.77 187.306 9.65 186.874 9.65C186.502 9.65 186.202 9.752 185.974 9.956C185.746 10.148 185.632 10.43 185.632 10.802C185.632 11.21 185.824 11.528 186.208 11.756C186.592 11.984 187.192 12.23 188.008 12.494C188.824 12.77 189.484 13.034 189.988 13.286C190.504 13.538 190.948 13.904 191.32 14.384C191.692 14.864 191.878 15.482 191.878 16.238C191.878 16.958 191.692 17.612 191.32 18.2C190.96 18.788 190.432 19.256 189.736 19.604C189.04 19.952 188.218 20.126 187.27 20.126ZM203.24 14.816C203.24 15.104 203.222 15.404 203.186 15.716H196.22C196.268 16.34 196.466 16.82 196.814 17.156C197.174 17.48 197.612 17.642 198.128 17.642C198.896 17.642 199.43 17.318 199.73 16.67H203.006C202.838 17.33 202.532 17.924 202.088 18.452C201.656 18.98 201.11 19.394 200.45 19.694C199.79 19.994 199.052 20.144 198.236 20.144C197.252 20.144 196.376 19.934 195.608 19.514C194.84 19.094 194.24 18.494 193.808 17.714C193.376 16.934 193.16 16.022 193.16 14.978C193.16 13.934 193.37 13.022 193.79 12.242C194.222 11.462 194.822 10.862 195.59 10.442C196.358 10.022 197.24 9.812 198.236 9.812C199.208 9.812 200.072 10.016 200.828 10.424C201.584 10.832 202.172 11.414 202.592 12.17C203.024 12.926 203.24 13.808 203.24 14.816ZM200.09 14.006C200.09 13.478 199.91 13.058 199.55 12.746C199.19 12.434 198.74 12.278 198.2 12.278C197.684 12.278 197.246 12.428 196.886 12.728C196.538 13.028 196.322 13.454 196.238 14.006H200.09ZM210.984 9.848C212.16 9.848 213.096 10.232 213.792 11C214.5 11.756 214.854 12.8 214.854 14.132V20H211.794V14.546C211.794 13.874 211.62 13.352 211.272 12.98C210.924 12.608 210.456 12.422 209.868 12.422C209.28 12.422 208.812 12.608 208.464 12.98C208.116 13.352 207.942 13.874 207.942 14.546V20H204.864V9.956H207.942V11.288C208.254 10.844 208.674 10.496 209.202 10.244C209.73 9.98 210.324 9.848 210.984 9.848ZM216.381 14.96C216.381 13.928 216.573 13.022 216.957 12.242C217.353 11.462 217.887 10.862 218.559 10.442C219.231 10.022 219.981 9.812 220.809 9.812C221.469 9.812 222.069 9.95 222.609 10.226C223.161 10.502 223.593 10.874 223.905 11.342V6.68H226.983V20H223.905V18.56C223.617 19.04 223.203 19.424 222.663 19.712C222.135 20 221.517 20.144 220.809 20.144C219.981 20.144 219.231 19.934 218.559 19.514C217.887 19.082 217.353 18.476 216.957 17.696C216.573 16.904 216.381 15.992 216.381 14.96ZM223.905 14.978C223.905 14.21 223.689 13.604 223.257 13.16C222.837 12.716 222.321 12.494 221.709 12.494C221.097 12.494 220.575 12.716 220.143 13.16C219.723 13.592 219.513 14.192 219.513 14.96C219.513 15.728 219.723 16.34 220.143 16.796C220.575 17.24 221.097 17.462 221.709 17.462C222.321 17.462 222.837 17.24 223.257 16.796C223.689 16.352 223.905 15.746 223.905 14.978Z" fill="#F6F9FE"/>
<g clip-path="url(#clip0_2953_169)">
<path d="M102.276 9.22459C101.417 8.38294 100.377 7.74815 99.2358 7.36841C98.0946 6.98867 96.8818 6.87397 95.6897 7.03303C94.4975 7.1921 93.3573 7.62075 92.3555 8.28641C91.3538 8.95207 90.517 9.83726 89.9085 10.8747C89.2228 12.0851 88.8665 13.454 88.8749 14.8451C88.8564 15.866 89.0487 16.8799 89.4399 17.8231C89.8311 18.7663 90.4127 19.6187 91.1484 20.3269C91.8775 21.0641 92.749 21.6452 93.7099 22.0349C94.6707 22.4246 95.7009 22.6146 96.7375 22.5935C98.284 22.5868 99.794 22.1234 101.078 21.2614C102.362 20.3994 103.363 19.1773 103.954 17.7486C104.546 16.3198 104.703 14.748 104.404 13.2306C104.106 11.7132 103.365 10.3179 102.276 9.21972L102.276 9.22459ZM102.191 18.0074C101.646 18.9671 100.85 19.7603 99.8887 20.3018C98.9124 20.8609 97.8055 21.1515 96.6804 21.144C95.8536 21.1465 95.0345 20.9849 94.2705 20.6686C93.5066 20.3523 92.8129 19.8876 92.2299 19.3014C91.6468 18.7151 91.1858 18.019 90.8737 17.2533C90.5615 16.4877 90.4045 15.6677 90.4115 14.8409C90.3962 13.7031 90.6822 12.5816 91.2404 11.5901C91.6498 10.8664 92.1991 10.2315 92.8564 9.72228C93.5137 9.21309 94.2658 8.83982 95.0688 8.62425C95.8718 8.40868 96.7097 8.35513 97.5336 8.46669C98.3576 8.57825 99.151 8.8527 99.8678 9.27406C100.841 9.82016 101.647 10.6196 102.202 11.5873C102.757 12.5551 103.04 13.6551 103.02 14.7705C103.033 15.9038 102.747 17.0205 102.191 18.0081V18.0074ZM118.533 18.0074V18.0506C118.539 18.66 118.41 19.2632 118.156 19.8171C117.902 20.371 117.529 20.8619 117.063 21.2547C115.997 22.1212 114.652 22.5692 113.28 22.5148C112.194 22.5233 111.119 22.3051 110.123 21.8739C109.145 21.4393 108.257 20.8234 107.508 20.0587L108.589 19.0139C109.193 19.6504 109.92 20.1567 110.727 20.5019C111.534 20.8471 112.402 21.0239 113.28 21.0214C115.509 21.0214 117.02 19.8254 117.02 18.0534V18.0102C117.045 17.684 116.992 17.3564 116.864 17.0553C116.736 16.7541 116.537 16.4881 116.285 16.2799C115.309 15.6281 114.202 15.198 113.042 15.0199C111.734 14.8323 110.485 14.3505 109.389 13.6108C108.998 13.3021 108.686 12.9048 108.479 12.4516C108.273 11.9985 108.177 11.5025 108.2 11.005V10.9625C108.195 10.4366 108.314 9.91692 108.548 9.44609C108.775 8.96465 109.099 8.53556 109.5 8.18604C110.435 7.43205 111.606 7.03135 112.808 7.05414C113.686 7.06327 114.556 7.22229 115.38 7.52433C116.159 7.83239 116.888 8.25727 117.539 8.78438L116.589 9.93717C115.523 9.05506 114.188 8.56504 112.805 8.54894C111.974 8.52267 111.161 8.79444 110.513 9.31515C110.268 9.51414 110.069 9.76463 109.931 10.0489C109.792 10.3332 109.718 10.6443 109.714 10.9604V11.0029C109.688 11.275 109.733 11.5491 109.842 11.7994C109.952 12.0497 110.123 12.2682 110.34 12.4343C111.263 13.0267 112.303 13.4128 113.389 13.5662C114.792 13.7828 116.124 14.324 117.28 15.1467C117.696 15.4943 118.025 15.9334 118.242 16.4296C118.46 16.9258 118.559 17.4656 118.533 18.0067L118.533 18.0074ZM84.3842 10.509C83.5869 9.2739 82.3927 8.34722 80.9983 7.88166C79.4213 7.44986 77.7864 7.26817 76.1531 7.34322H73.068V22.2243H77.8046C79.2906 22.2987 80.7732 22.0219 82.1322 21.4163C83.1949 20.843 84.0665 19.9714 84.6398 18.9087C85.3006 17.7031 85.6328 16.3449 85.6032 14.9704C85.6464 13.3955 85.2222 11.8431 84.3842 10.509ZM83.1304 18.4636C82.5012 19.4036 81.5683 20.099 80.4877 20.4335C79.0853 20.7511 77.6467 20.8794 76.2102 20.8152H74.489V8.7997H75.5443C77.0911 8.73741 78.6393 8.88051 80.1485 9.22529C81.3325 9.55821 82.3611 10.2982 83.0531 11.3149C83.7696 12.4044 84.1331 13.688 84.0944 14.9913C84.1309 16.2186 83.7951 17.4281 83.1311 18.4609L83.1304 18.4636ZM40.7105 11.5859C40.1454 12.5726 39.8566 13.6935 39.8746 14.8304C39.853 15.6756 40.0082 16.516 40.3303 17.2977C40.6523 18.0794 41.1341 18.7852 41.7449 19.3698C42.368 19.9732 43.1059 20.4452 43.9149 20.7579C44.7238 21.0707 45.5874 21.2179 46.4543 21.1906C47.4543 21.2043 48.4444 20.9908 49.3499 20.5662C50.2554 20.1416 51.0528 19.517 51.6818 18.7395L52.8577 19.6318C52.1205 20.5728 51.1684 21.3233 50.0812 21.8203C48.9135 22.3481 47.6436 22.6116 46.3623 22.5921C45.2062 22.647 44.0524 22.442 42.9859 21.9922C41.9194 21.5423 40.9674 20.859 40.2 19.9926C38.9368 18.5209 38.2633 16.6335 38.3095 14.6946C38.2875 13.6691 38.4803 12.6503 38.8755 11.7037C39.2706 10.7571 39.8594 9.90368 40.6039 9.19813C41.3623 8.46162 42.2609 7.88486 43.2463 7.50198C44.2318 7.11911 45.284 6.93791 46.3407 6.96916C47.641 6.95059 48.9281 7.23185 50.1021 7.7911C51.1976 8.32396 52.1443 9.1196 52.8577 10.1071L51.6818 11.0064C51.0678 10.1913 50.2694 9.53343 49.3519 9.08667C48.4177 8.64573 47.3953 8.42326 46.3623 8.4361C45.2061 8.42646 44.0678 8.72173 43.062 9.29217C42.0857 9.82946 41.2731 10.6211 40.7105 11.5831V11.5859ZM67.7889 7.34322H69.2335V16.2904C69.2335 17.9547 68.5724 19.5508 67.3956 20.7277C66.2187 21.9045 64.6226 22.5656 62.9583 22.5656C61.294 22.5656 59.6979 21.9045 58.5211 20.7277C57.3443 19.5508 56.6831 17.9547 56.6831 16.2904V7.34043H58.1208V16.2904C58.1208 17.5725 58.6301 18.802 59.5367 19.7086C60.4432 20.6152 61.6728 21.1245 62.9548 21.1245C64.2369 21.1245 65.4665 20.6152 66.373 19.7086C67.2796 18.802 67.7889 17.5725 67.7889 16.2904V7.34322Z" fill="#F6F9FE"/>
</g>
<g clip-path="url(#clip1_2953_169)">
<path d="M23.8957 4.10544C21.6057 1.81958 18.5941 0.398367 15.3739 0.0839047C12.1536 -0.230557 8.92398 0.581182 6.23508 2.38085C3.54618 4.18052 1.56437 6.85679 0.62726 9.95374C-0.30985 13.0507 -0.144293 16.3767 1.09573 19.3653C2.33575 22.3539 4.57352 24.8202 7.42784 26.3439C10.2822 27.8676 13.5765 28.3546 16.7496 27.7219C19.9227 27.0892 22.7783 25.3759 24.8299 22.8739C26.8816 20.3719 28.0023 17.236 28.0013 14.0004C27.9971 10.2885 26.5206 6.72991 23.8957 4.10544ZM13.2759 26.5244C10.0865 26.3294 7.09161 24.9249 4.90218 22.5974C2.71276 20.2699 1.49374 17.1948 1.49374 13.9994C1.49374 10.8039 2.71276 7.72885 4.90218 5.40138C7.09161 3.07391 10.0865 1.66938 13.2759 1.47432V6.22238C11.3374 6.40179 9.53568 7.29877 8.22403 8.73746C6.91237 10.1761 6.1853 12.0528 6.1853 13.9997C6.1853 15.9466 6.91237 17.8233 8.22403 19.262C9.53568 20.7007 11.3374 21.5976 13.2759 21.777V26.5244ZM14.0003 20.3635C12.5262 20.3648 11.0973 19.8548 9.95706 18.9205C8.81686 17.9862 8.03596 16.6853 7.74746 15.2397C7.45897 13.7941 7.68076 12.2931 8.37499 10.9927C9.06922 9.69229 10.1929 8.67291 11.5546 8.10826C12.9163 7.54362 14.4316 7.46869 15.8424 7.89626C17.2531 8.32382 18.4719 9.22739 19.291 10.453C20.1101 11.6786 20.4789 13.1504 20.3344 14.6174C20.1899 16.0844 19.5411 17.4559 18.4986 18.4982C17.306 19.6917 15.6882 20.3626 14.001 20.3635H14.0003ZM23.1191 22.6073C20.9235 24.9356 17.9214 26.3371 14.7267 26.5251V21.777C16.6653 21.5976 18.4669 20.7007 19.7786 19.262C21.0903 17.8233 21.8173 15.9466 21.8173 13.9997C21.8173 12.0528 21.0903 10.1761 19.7786 8.73746C18.4669 7.29877 16.6653 6.40179 14.7267 6.22238V1.47432C17.1096 1.61512 19.4029 2.43272 21.3375 3.83113C23.2721 5.22953 24.7676 7.15075 25.6487 9.3693C26.5298 11.5879 26.7598 14.0117 26.3117 16.3564C25.8636 18.7011 24.7561 20.8693 23.1191 22.6066V22.6073Z" fill="url(#paint0_linear_2953_169)"/>
</g>
<line x1="126.5" y1="7.5" x2="126.5" y2="20.5" stroke="#F6F9FE" stroke-linecap="round"/>
<defs>
<linearGradient id="paint0_linear_2953_169" x1="4.11191" y1="23.9077" x2="23.8897" y2="4.13039" gradientUnits="userSpaceOnUse">
<stop offset="0.005" stop-color="#4E9DF7"/>
<stop offset="0.996" stop-color="#6CD8F9"/>
<stop offset="1" stop-color="#6DD9FA"/>
</linearGradient>
<clipPath id="clip0_2953_169">
<rect width="80.2231" height="15.6327" fill="white" transform="translate(38.3102 6.96548)"/>
</clipPath>
<clipPath id="clip1_2953_169">
<rect width="28" height="28" fill="white"/>
</clipPath>
</defs>
</svg>
