<svg width="20" height="20" viewBox="0 0 20 20" fill="none" xmlns="http://www.w3.org/2000/svg">
<path d="M10.0001 18.3333C8.35191 18.3333 6.74074 17.8446 5.37033 16.9289C3.99992 16.0132 2.93182 14.7117 2.30109 13.189C1.67036 11.6663 1.50533 9.99075 1.82687 8.37424C2.14842 6.75773 2.94209 5.27287 4.10753 4.10744C5.27297 2.942 6.75782 2.14833 8.37433 1.82678C9.99084 1.50524 11.6664 1.67027 13.1891 2.301C14.7118 2.93173 16.0133 3.99983 16.929 5.37024C17.8447 6.74065 18.3334 8.35182 18.3334 9.99999C18.3309 12.2094 17.4521 14.3275 15.8898 15.8898C14.3276 17.452 12.2094 18.3308 10.0001 18.3333Z" fill="#F6F9FE"/>
<path d="M13.3333 10.8333H6.66659C6.44557 10.8333 6.23361 10.7455 6.07733 10.5893C5.92105 10.433 5.83325 10.221 5.83325 10C5.83325 9.77899 5.92105 9.56703 6.07733 9.41075C6.23361 9.25447 6.44557 9.16667 6.66659 9.16667H13.3333C13.5543 9.16667 13.7662 9.25447 13.9225 9.41075C14.0788 9.56703 14.1666 9.77899 14.1666 10C14.1666 10.221 14.0788 10.433 13.9225 10.5893C13.7662 10.7455 13.5543 10.8333 13.3333 10.8333Z" fill="#52A6F8"/>
<path d="M10.0001 14.1667C9.89064 14.1667 9.78226 14.1452 9.68115 14.1033C9.58003 14.0614 9.48815 14 9.41076 13.9226C9.33337 13.8453 9.27199 13.7534 9.23012 13.6523C9.18825 13.5511 9.16672 13.4428 9.16675 13.3333V6.66666C9.16675 6.44565 9.25455 6.23369 9.41083 6.07741C9.56711 5.92113 9.77907 5.83333 10.0001 5.83333C10.2211 5.83333 10.4331 5.92113 10.5893 6.07741C10.7456 6.23369 10.8334 6.44565 10.8334 6.66666V13.3333C10.8334 13.4428 10.8119 13.5511 10.77 13.6523C10.7282 13.7534 10.6668 13.8453 10.5894 13.9226C10.512 14 10.4201 14.0614 10.319 14.1033C10.2179 14.1452 10.1095 14.1667 10.0001 14.1667Z" fill="#52A6F8"/>
</svg>
