<svg width="166" height="188" viewBox="0 0 166 188" fill="none" xmlns="http://www.w3.org/2000/svg">
<line x1="161.5" y1="0.5" x2="161.5" y2="187.5" stroke="#636D8F" stroke-opacity="0.2" stroke-linecap="round"/>
<path d="M17.8303 33.666V30.824H19.3843C20.4903 30.824 20.9803 31.356 20.9803 32.252C20.9803 33.12 20.4903 33.666 19.3843 33.666H17.8303ZM22.9963 32.252C22.9963 30.558 21.8203 29.228 19.4683 29.228H15.8703V39H17.8303V35.248H19.4683C21.9883 35.248 22.9963 33.736 22.9963 32.252ZM26.3479 35.136C26.3479 33.638 27.0479 33.19 28.2099 33.19H28.7279V31.132C27.6499 31.132 26.8379 31.65 26.3479 32.448V31.244H24.3879V39H26.3479V35.136ZM33.38 32.728C34.388 32.728 35.2 33.372 35.228 34.394H31.546C31.7 33.33 32.442 32.728 33.38 32.728ZM37.062 36.564H34.948C34.696 37.082 34.234 37.502 33.394 37.502C32.414 37.502 31.63 36.858 31.532 35.71H37.202C37.244 35.458 37.258 35.206 37.258 34.954C37.258 32.644 35.676 31.118 33.436 31.118C31.14 31.118 29.544 32.672 29.544 35.122C29.544 37.558 31.182 39.126 33.436 39.126C35.354 39.126 36.642 37.992 37.062 36.564ZM40.6487 32.364V31.244H38.6887V42.696H40.6487V37.894C41.1247 38.524 41.9927 39.126 43.2107 39.126C45.1987 39.126 46.7527 37.516 46.7527 35.094C46.7527 32.672 45.1987 31.118 43.2107 31.118C42.0067 31.118 41.1107 31.706 40.6487 32.364ZM44.7507 35.094C44.7507 36.564 43.7567 37.404 42.6927 37.404C41.6427 37.404 40.6487 36.592 40.6487 35.122C40.6487 33.652 41.6427 32.84 42.6927 32.84C43.7567 32.84 44.7507 33.624 44.7507 35.094ZM47.6729 35.094C47.6729 37.516 49.2409 39.126 51.2009 39.126C52.4329 39.126 53.3149 38.538 53.7769 37.866V39H55.7509V31.244H53.7769V32.35C53.3149 31.706 52.4609 31.118 51.2149 31.118C49.2409 31.118 47.6729 32.672 47.6729 35.094ZM53.7769 35.122C53.7769 36.592 52.7969 37.404 51.7189 37.404C50.6689 37.404 49.6749 36.564 49.6749 35.094C49.6749 33.624 50.6689 32.84 51.7189 32.84C52.7969 32.84 53.7769 33.652 53.7769 35.122ZM59.6252 35.136C59.6252 33.638 60.3252 33.19 61.4872 33.19H62.0052V31.132C60.9272 31.132 60.1152 31.65 59.6252 32.448V31.244H57.6652V39H59.6252V35.136ZM66.6574 32.728C67.6654 32.728 68.4774 33.372 68.5054 34.394H64.8234C64.9774 33.33 65.7194 32.728 66.6574 32.728ZM70.3394 36.564H68.2254C67.9734 37.082 67.5114 37.502 66.6714 37.502C65.6914 37.502 64.9074 36.858 64.8094 35.71H70.4794C70.5214 35.458 70.5354 35.206 70.5354 34.954C70.5354 32.644 68.9534 31.118 66.7134 31.118C64.4174 31.118 62.8214 32.672 62.8214 35.122C62.8214 37.558 64.4594 39.126 66.7134 39.126C68.6314 39.126 69.9194 37.992 70.3394 36.564Z" fill="#F6F9FE"/>
<path d="M17.9946 100H20.0666L16.5526 90.214H14.2706L10.7566 100H12.8146L13.4586 98.138H17.3506L17.9946 100ZM16.8186 96.57H13.9906L15.4046 92.482L16.8186 96.57ZM23.3401 93.364V92.244H21.3801V103.696H23.3401V98.894C23.8161 99.524 24.6841 100.126 25.9021 100.126C27.8901 100.126 29.4441 98.516 29.4441 96.094C29.4441 93.672 27.8901 92.118 25.9021 92.118C24.6981 92.118 23.8021 92.706 23.3401 93.364ZM27.4421 96.094C27.4421 97.564 26.4481 98.404 25.3841 98.404C24.3341 98.404 23.3401 97.592 23.3401 96.122C23.3401 94.652 24.3341 93.84 25.3841 93.84C26.4481 93.84 27.4421 94.624 27.4421 96.094ZM32.8283 93.364V92.244H30.8683V103.696H32.8283V98.894C33.3043 99.524 34.1723 100.126 35.3903 100.126C37.3783 100.126 38.9323 98.516 38.9323 96.094C38.9323 93.672 37.3783 92.118 35.3903 92.118C34.1863 92.118 33.2903 92.706 32.8283 93.364ZM36.9303 96.094C36.9303 97.564 35.9363 98.404 34.8723 98.404C33.8223 98.404 32.8283 97.592 32.8283 96.122C32.8283 94.652 33.8223 93.84 34.8723 93.84C35.9363 93.84 36.9303 94.624 36.9303 96.094ZM42.3166 96.136C42.3166 94.638 43.0166 94.19 44.1786 94.19H44.6966V92.132C43.6186 92.132 42.8066 92.65 42.3166 93.448V92.244H40.3566V100H42.3166V96.136ZM53.5068 96.122C53.5068 93.672 51.7568 92.118 49.5168 92.118C47.2768 92.118 45.5268 93.672 45.5268 96.122C45.5268 98.558 47.2208 100.126 49.4608 100.126C51.7148 100.126 53.5068 98.558 53.5068 96.122ZM47.5148 96.122C47.5148 94.568 48.4528 93.826 49.4888 93.826C50.5248 93.826 51.4908 94.568 51.4908 96.122C51.4908 97.662 50.4968 98.418 49.4608 98.418C48.4108 98.418 47.5148 97.662 47.5148 96.122ZM54.1185 92.244L56.9745 100H59.3545L62.2245 92.244H60.1385L58.1785 98.194L56.2185 92.244H54.1185ZM66.6574 93.728C67.6654 93.728 68.4774 94.372 68.5054 95.394H64.8234C64.9774 94.33 65.7194 93.728 66.6574 93.728ZM70.3394 97.564H68.2254C67.9734 98.082 67.5114 98.502 66.6714 98.502C65.6914 98.502 64.9074 97.858 64.8094 96.71H70.4794C70.5214 96.458 70.5354 96.206 70.5354 95.954C70.5354 93.644 68.9534 92.118 66.7134 92.118C64.4174 92.118 62.8214 93.672 62.8214 96.122C62.8214 98.558 64.4594 100.126 66.7134 100.126C68.6314 100.126 69.9194 98.992 70.3394 97.564Z" fill="#7D87AA"/>
<path d="M1.88397 159H3.84397V152.644L6.47597 159H7.95997L10.578 152.644V159H12.538V149.228H10.326L7.21797 156.494L4.10997 149.228H1.88397V159ZM21.7978 151.244H19.8238V155.514C19.8238 156.76 19.1518 157.432 18.0878 157.432C17.0518 157.432 16.3658 156.76 16.3658 155.514V151.244H14.4058V155.794C14.4058 157.922 15.7078 159.098 17.5138 159.098C18.4798 159.098 19.3338 158.678 19.8238 158.02V159H21.7978V151.244ZM23.7316 159H25.6916V148.64H23.7316V159ZM27.9361 156.592C27.9361 158.37 28.9301 159 30.4141 159H31.6461V157.348H30.7361C30.1201 157.348 29.9101 157.124 29.9101 156.606V152.854H31.6461V151.244H29.9101V149.326H27.9361V151.244H27.0121V152.854H27.9361V156.592ZM33.0558 159H35.0158V151.244H33.0558V159ZM34.0498 150.32C34.7358 150.32 35.2538 149.816 35.2538 149.172C35.2538 148.528 34.7358 148.024 34.0498 148.024C33.3498 148.024 32.8458 148.528 32.8458 149.172C32.8458 149.816 33.3498 150.32 34.0498 150.32ZM42.9723 156.788C42.9163 153.946 38.6183 154.828 38.6183 153.414C38.6183 152.966 38.9963 152.672 39.7243 152.672C40.4943 152.672 40.9703 153.078 41.0263 153.68H42.9023C42.7903 152.14 41.6563 151.118 39.7803 151.118C37.8623 151.118 36.7143 152.154 36.7143 153.442C36.7143 156.284 41.0963 155.402 41.0963 156.788C41.0963 157.236 40.6763 157.586 39.9063 157.586C39.1223 157.586 38.5763 157.138 38.5063 156.55H36.5323C36.6163 157.992 37.9743 159.126 39.9203 159.126C41.8103 159.126 42.9723 158.118 42.9723 156.788ZM47.9132 152.728C48.9212 152.728 49.7332 153.372 49.7612 154.394H46.0792C46.2332 153.33 46.9752 152.728 47.9132 152.728ZM51.5952 156.564H49.4812C49.2292 157.082 48.7672 157.502 47.9272 157.502C46.9472 157.502 46.1632 156.858 46.0652 155.71H51.7352C51.7772 155.458 51.7912 155.206 51.7912 154.954C51.7912 152.644 50.2092 151.118 47.9692 151.118C45.6732 151.118 44.0772 152.672 44.0772 155.122C44.0772 157.558 45.7152 159.126 47.9692 159.126C49.8872 159.126 51.1752 157.992 51.5952 156.564ZM58.6539 159H60.6139V154.45C60.6139 152.308 59.3259 151.132 57.5199 151.132C56.5259 151.132 55.6859 151.552 55.1819 152.21V151.244H53.2219V159H55.1819V154.716C55.1819 153.47 55.8679 152.798 56.9319 152.798C57.9679 152.798 58.6539 153.47 58.6539 154.716V159ZM61.9737 155.094C61.9737 157.516 63.5417 159.126 65.5157 159.126C66.7337 159.126 67.6017 158.566 68.0637 157.852V159H70.0517V148.64H68.0637V152.322C67.5317 151.594 66.5517 151.118 65.5297 151.118C63.5417 151.118 61.9737 152.672 61.9737 155.094ZM68.0777 155.122C68.0777 156.592 67.0977 157.404 66.0197 157.404C64.9697 157.404 63.9757 156.564 63.9757 155.094C63.9757 153.624 64.9697 152.84 66.0197 152.84C67.0977 152.84 68.0777 153.652 68.0777 155.122Z" fill="#7D87AA"/>
<circle cx="161" cy="33" r="5" fill="#52A6F8"/>
<circle cx="161" cy="94" r="4" fill="#20273E" stroke="#7D87AA" stroke-width="2"/>
<circle cx="161" cy="155" r="4" fill="#20273E" stroke="#7D87AA" stroke-width="2"/>
<circle cx="108" cy="33" r="18" fill="#52A6F8"/>
<path d="M105.083 32.5833C106.917 32.5833 108.417 31.0833 108.417 29.25C108.417 27.4167 106.917 25.9167 105.083 25.9167C103.25 25.9167 101.75 27.4167 101.75 29.25C101.75 31.0833 103.25 32.5833 105.083 32.5833ZM108.833 31.8333C110.25 33 112.333 32.75 113.5 31.3333C114.667 29.9167 114.417 27.8333 113 26.6667C112.417 26.1667 111.667 25.9167 110.917 25.9167C110.167 25.9167 109.417 26.1667 108.833 26.6667C110.25 27.8333 110.5 29.8333 109.333 31.3333C109.25 31.5 109 31.6667 108.833 31.8333ZM117.083 39.1667C116.583 36.0833 114 33.8333 110.917 33.8333C110.167 33.8333 109.5 33.9167 108.833 34.1667C111 34.9167 112.583 36.8333 112.917 39.0833C113 39.5 112.667 40 112.167 40H112.083H116.25C116.75 40 117.083 39.6667 117.083 39.1667C117.083 39.25 117.083 39.1667 117.083 39.1667ZM105.083 33.8333C102 33.8333 99.3332 36.0833 98.9166 39.1667C98.8332 39.5833 99.1666 40.0833 99.6666 40.0833H99.7499H110.417C110.917 40.0833 111.25 39.75 111.25 39.25V39.1667C110.833 36.0833 108.167 33.8333 105.083 33.8333Z" fill="#F6F9FE"/>
<circle cx="108" cy="94" r="18" fill="#52A6F8" fill-opacity="0.1"/>
<path d="M112.167 87.3333H111.167C110.833 86.3333 109.917 85.6667 108.833 85.6667H107.167C106.083 85.6667 105.167 86.3333 104.833 87.3333H103.833C102.417 87.3333 101.333 88.4167 101.333 89.8333V99.8333C101.333 101.25 102.417 102.333 103.833 102.333H112.167C113.583 102.333 114.667 101.25 114.667 99.8333V89.8333C114.667 88.4167 113.583 87.3333 112.167 87.3333ZM106.333 88.1667C106.333 87.6667 106.667 87.3333 107.167 87.3333H108.833C109.333 87.3333 109.667 87.6667 109.667 88.1667V89H106.333V88.1667ZM108.833 97.3333H105.5C105 97.3333 104.667 97 104.667 96.5C104.667 96 105 95.6667 105.5 95.6667H108.833C109.333 95.6667 109.667 96 109.667 96.5C109.667 97 109.333 97.3333 108.833 97.3333ZM110.5 94H105.5C105 94 104.667 93.6667 104.667 93.1667C104.667 92.6667 105 92.3333 105.5 92.3333H110.5C111 92.3333 111.333 92.6667 111.333 93.1667C111.333 93.6667 111 94 110.5 94Z" fill="#52A6F8"/>
<circle cx="108" cy="155" r="18" fill="#52A6F8" fill-opacity="0.1"/>
<path d="M114.417 151.583C114.75 151.25 114.75 150.75 114.417 150.417L110.917 146.917C110.583 146.583 110.083 146.583 109.75 146.917L107.417 149.25L112.167 154L114.417 151.583ZM102.167 160H105.667C105.917 160 106.083 159.917 106.25 159.75L110.833 155.167L106.167 150.417L101.583 155C101.417 155.167 101.333 155.417 101.333 155.667V159.167C101.333 159.667 101.667 160 102.167 160ZM115.5 161.667H100.5C99.9998 161.667 99.6665 162 99.6665 162.5C99.6665 163 99.9998 163.333 100.5 163.333H115.5C116 163.333 116.333 163 116.333 162.5C116.333 162 116 161.667 115.5 161.667Z" fill="#52A6F8"/>
</svg>
