<svg width="166" height="188" viewBox="0 0 166 188" fill="none" xmlns="http://www.w3.org/2000/svg">
<line x1="161.5" y1="0.5" x2="161.5" y2="187.5" stroke="#636D8F" stroke-opacity="0.2" stroke-linecap="round"/>
<path d="M22.9963 32.252C22.9963 32.7747 22.8703 33.2647 22.6183 33.722C22.3756 34.1793 21.9883 34.548 21.4563 34.828C20.9336 35.108 20.271 35.248 19.4683 35.248H17.8303V39H15.8703V29.228H19.4683C20.2243 29.228 20.8683 29.3587 21.4003 29.62C21.9323 29.8813 22.329 30.2407 22.5903 30.698C22.861 31.1553 22.9963 31.6733 22.9963 32.252ZM19.3843 33.666C19.9256 33.666 20.327 33.5447 20.5883 33.302C20.8496 33.05 20.9803 32.7 20.9803 32.252C20.9803 31.3 20.4483 30.824 19.3843 30.824H17.8303V33.666H19.3843ZM26.3479 32.448C26.5999 32.0373 26.9265 31.7153 27.3279 31.482C27.7385 31.2487 28.2052 31.132 28.7279 31.132V33.19H28.2099C27.5939 33.19 27.1272 33.3347 26.8099 33.624C26.5019 33.9133 26.3479 34.4173 26.3479 35.136V39H24.3879V31.244H26.3479V32.448ZM37.258 34.954C37.258 35.234 37.2394 35.486 37.202 35.71H31.532C31.5787 36.27 31.7747 36.7087 32.12 37.026C32.4654 37.3433 32.89 37.502 33.394 37.502C34.122 37.502 34.64 37.1893 34.948 36.564H37.062C36.838 37.3107 36.4087 37.9267 35.774 38.412C35.1394 38.888 34.36 39.126 33.436 39.126C32.6894 39.126 32.0174 38.9627 31.42 38.636C30.832 38.3 30.37 37.8287 30.034 37.222C29.7074 36.6153 29.544 35.9153 29.544 35.122C29.544 34.3193 29.7074 33.6147 30.034 33.008C30.3607 32.4013 30.818 31.9347 31.406 31.608C31.994 31.2813 32.6707 31.118 33.436 31.118C34.1734 31.118 34.8314 31.2767 35.41 31.594C35.998 31.9113 36.4507 32.364 36.768 32.952C37.0947 33.5307 37.258 34.198 37.258 34.954ZM35.228 34.394C35.2187 33.89 35.0367 33.4887 34.682 33.19C34.3274 32.882 33.8934 32.728 33.38 32.728C32.8947 32.728 32.484 32.8773 32.148 33.176C31.8214 33.4653 31.6207 33.8713 31.546 34.394H35.228ZM40.6487 32.364C40.9007 32.0093 41.246 31.7153 41.6847 31.482C42.1327 31.2393 42.6413 31.118 43.2107 31.118C43.8733 31.118 44.4707 31.2813 45.0027 31.608C45.544 31.9347 45.9687 32.4013 46.2767 33.008C46.594 33.6053 46.7527 34.3007 46.7527 35.094C46.7527 35.8873 46.594 36.592 46.2767 37.208C45.9687 37.8147 45.544 38.286 45.0027 38.622C44.4707 38.958 43.8733 39.126 43.2107 39.126C42.6413 39.126 42.1373 39.0093 41.6987 38.776C41.2693 38.5427 40.9193 38.2487 40.6487 37.894V42.696H38.6887V31.244H40.6487V32.364ZM44.7507 35.094C44.7507 34.6273 44.6527 34.226 44.4567 33.89C44.27 33.5447 44.018 33.2833 43.7007 33.106C43.3927 32.9287 43.0567 32.84 42.6927 32.84C42.338 32.84 42.002 32.9333 41.6847 33.12C41.3767 33.2973 41.1247 33.5587 40.9287 33.904C40.742 34.2493 40.6487 34.6553 40.6487 35.122C40.6487 35.5887 40.742 35.9947 40.9287 36.34C41.1247 36.6853 41.3767 36.9513 41.6847 37.138C42.002 37.3153 42.338 37.404 42.6927 37.404C43.0567 37.404 43.3927 37.3107 43.7007 37.124C44.018 36.9373 44.27 36.6713 44.4567 36.326C44.6527 35.9807 44.7507 35.57 44.7507 35.094ZM47.6729 35.094C47.6729 34.31 47.8269 33.6147 48.1349 33.008C48.4523 32.4013 48.8769 31.9347 49.4089 31.608C49.9503 31.2813 50.5523 31.118 51.2149 31.118C51.7936 31.118 52.2976 31.2347 52.7269 31.468C53.1656 31.7013 53.5156 31.9953 53.7769 32.35V31.244H55.7509V39H53.7769V37.866C53.5249 38.23 53.1749 38.5333 52.7269 38.776C52.2883 39.0093 51.7796 39.126 51.2009 39.126C50.5476 39.126 49.9503 38.958 49.4089 38.622C48.8769 38.286 48.4523 37.8147 48.1349 37.208C47.8269 36.592 47.6729 35.8873 47.6729 35.094ZM53.7769 35.122C53.7769 34.646 53.6836 34.24 53.4969 33.904C53.3103 33.5587 53.0583 33.2973 52.7409 33.12C52.4236 32.9333 52.0829 32.84 51.7189 32.84C51.3549 32.84 51.0189 32.9287 50.7109 33.106C50.4029 33.2833 50.1509 33.5447 49.9549 33.89C49.7683 34.226 49.6749 34.6273 49.6749 35.094C49.6749 35.5607 49.7683 35.9713 49.9549 36.326C50.1509 36.6713 50.4029 36.9373 50.7109 37.124C51.0283 37.3107 51.3643 37.404 51.7189 37.404C52.0829 37.404 52.4236 37.3153 52.7409 37.138C53.0583 36.9513 53.3103 36.69 53.4969 36.354C53.6836 36.0087 53.7769 35.598 53.7769 35.122ZM59.6252 32.448C59.8772 32.0373 60.2039 31.7153 60.6052 31.482C61.0159 31.2487 61.4826 31.132 62.0052 31.132V33.19H61.4872C60.8712 33.19 60.4046 33.3347 60.0872 33.624C59.7792 33.9133 59.6252 34.4173 59.6252 35.136V39H57.6652V31.244H59.6252V32.448ZM70.5354 34.954C70.5354 35.234 70.5167 35.486 70.4794 35.71H64.8094C64.856 36.27 65.052 36.7087 65.3974 37.026C65.7427 37.3433 66.1674 37.502 66.6714 37.502C67.3994 37.502 67.9174 37.1893 68.2254 36.564H70.3394C70.1154 37.3107 69.686 37.9267 69.0514 38.412C68.4167 38.888 67.6374 39.126 66.7134 39.126C65.9667 39.126 65.2947 38.9627 64.6974 38.636C64.1094 38.3 63.6474 37.8287 63.3114 37.222C62.9847 36.6153 62.8214 35.9153 62.8214 35.122C62.8214 34.3193 62.9847 33.6147 63.3114 33.008C63.638 32.4013 64.0954 31.9347 64.6834 31.608C65.2714 31.2813 65.948 31.118 66.7134 31.118C67.4507 31.118 68.1087 31.2767 68.6874 31.594C69.2754 31.9113 69.728 32.364 70.0454 32.952C70.372 33.5307 70.5354 34.198 70.5354 34.954ZM68.5054 34.394C68.496 33.89 68.314 33.4887 67.9594 33.19C67.6047 32.882 67.1707 32.728 66.6574 32.728C66.172 32.728 65.7614 32.8773 65.4254 33.176C65.0987 33.4653 64.898 33.8713 64.8234 34.394H68.5054Z" fill="#7D87AA"/>
<path d="M17.3506 98.138H13.4586L12.8146 100H10.7566L14.2706 90.214H16.5526L20.0666 100H17.9946L17.3506 98.138ZM16.8186 96.57L15.4046 92.482L13.9906 96.57H16.8186ZM23.3401 93.364C23.5921 93.0093 23.9374 92.7153 24.3761 92.482C24.8241 92.2393 25.3327 92.118 25.9021 92.118C26.5647 92.118 27.1621 92.2813 27.6941 92.608C28.2354 92.9347 28.6601 93.4013 28.9681 94.008C29.2854 94.6053 29.4441 95.3007 29.4441 96.094C29.4441 96.8873 29.2854 97.592 28.9681 98.208C28.6601 98.8147 28.2354 99.286 27.6941 99.622C27.1621 99.958 26.5647 100.126 25.9021 100.126C25.3327 100.126 24.8287 100.009 24.3901 99.776C23.9607 99.5427 23.6107 99.2487 23.3401 98.894V103.696H21.3801V92.244H23.3401V93.364ZM27.4421 96.094C27.4421 95.6273 27.3441 95.226 27.1481 94.89C26.9614 94.5447 26.7094 94.2833 26.3921 94.106C26.0841 93.9287 25.7481 93.84 25.3841 93.84C25.0294 93.84 24.6934 93.9333 24.3761 94.12C24.0681 94.2973 23.8161 94.5587 23.6201 94.904C23.4334 95.2493 23.3401 95.6553 23.3401 96.122C23.3401 96.5887 23.4334 96.9947 23.6201 97.34C23.8161 97.6853 24.0681 97.9513 24.3761 98.138C24.6934 98.3153 25.0294 98.404 25.3841 98.404C25.7481 98.404 26.0841 98.3107 26.3921 98.124C26.7094 97.9373 26.9614 97.6713 27.1481 97.326C27.3441 96.9807 27.4421 96.57 27.4421 96.094ZM32.8283 93.364C33.0803 93.0093 33.4257 92.7153 33.8643 92.482C34.3123 92.2393 34.821 92.118 35.3903 92.118C36.053 92.118 36.6503 92.2813 37.1823 92.608C37.7237 92.9347 38.1483 93.4013 38.4563 94.008C38.7737 94.6053 38.9323 95.3007 38.9323 96.094C38.9323 96.8873 38.7737 97.592 38.4563 98.208C38.1483 98.8147 37.7237 99.286 37.1823 99.622C36.6503 99.958 36.053 100.126 35.3903 100.126C34.821 100.126 34.317 100.009 33.8783 99.776C33.449 99.5427 33.099 99.2487 32.8283 98.894V103.696H30.8683V92.244H32.8283V93.364ZM36.9303 96.094C36.9303 95.6273 36.8323 95.226 36.6363 94.89C36.4497 94.5447 36.1977 94.2833 35.8803 94.106C35.5723 93.9287 35.2363 93.84 34.8723 93.84C34.5177 93.84 34.1817 93.9333 33.8643 94.12C33.5563 94.2973 33.3043 94.5587 33.1083 94.904C32.9217 95.2493 32.8283 95.6553 32.8283 96.122C32.8283 96.5887 32.9217 96.9947 33.1083 97.34C33.3043 97.6853 33.5563 97.9513 33.8643 98.138C34.1817 98.3153 34.5177 98.404 34.8723 98.404C35.2363 98.404 35.5723 98.3107 35.8803 98.124C36.1977 97.9373 36.4497 97.6713 36.6363 97.326C36.8323 96.9807 36.9303 96.57 36.9303 96.094ZM42.3166 93.448C42.5686 93.0373 42.8953 92.7153 43.2966 92.482C43.7073 92.2487 44.174 92.132 44.6966 92.132V94.19H44.1786C43.5626 94.19 43.096 94.3347 42.7786 94.624C42.4706 94.9133 42.3166 95.4173 42.3166 96.136V100H40.3566V92.244H42.3166V93.448ZM49.4608 100.126C48.7141 100.126 48.0421 99.9627 47.4448 99.636C46.8474 99.3 46.3761 98.8287 46.0308 98.222C45.6948 97.6153 45.5268 96.9153 45.5268 96.122C45.5268 95.3287 45.6994 94.6287 46.0448 94.022C46.3994 93.4153 46.8801 92.9487 47.4868 92.622C48.0934 92.286 48.7701 92.118 49.5168 92.118C50.2634 92.118 50.9401 92.286 51.5468 92.622C52.1534 92.9487 52.6294 93.4153 52.9748 94.022C53.3294 94.6287 53.5068 95.3287 53.5068 96.122C53.5068 96.9153 53.3248 97.6153 52.9608 98.222C52.6061 98.8287 52.1208 99.3 51.5048 99.636C50.8981 99.9627 50.2168 100.126 49.4608 100.126ZM49.4608 98.418C49.8154 98.418 50.1468 98.334 50.4548 98.166C50.7721 97.9887 51.0241 97.7273 51.2108 97.382C51.3974 97.0367 51.4908 96.6167 51.4908 96.122C51.4908 95.3847 51.2948 94.82 50.9028 94.428C50.5201 94.0267 50.0488 93.826 49.4888 93.826C48.9288 93.826 48.4574 94.0267 48.0748 94.428C47.7014 94.82 47.5148 95.3847 47.5148 96.122C47.5148 96.8593 47.6968 97.4287 48.0608 97.83C48.4341 98.222 48.9008 98.418 49.4608 98.418ZM58.1785 98.194L60.1385 92.244H62.2245L59.3545 100H56.9745L54.1185 92.244H56.2185L58.1785 98.194ZM70.5354 95.954C70.5354 96.234 70.5167 96.486 70.4794 96.71H64.8094C64.856 97.27 65.052 97.7087 65.3974 98.026C65.7427 98.3433 66.1674 98.502 66.6714 98.502C67.3994 98.502 67.9174 98.1893 68.2254 97.564H70.3394C70.1154 98.3107 69.686 98.9267 69.0514 99.412C68.4167 99.888 67.6374 100.126 66.7134 100.126C65.9667 100.126 65.2947 99.9627 64.6974 99.636C64.1094 99.3 63.6474 98.8287 63.3114 98.222C62.9847 97.6153 62.8214 96.9153 62.8214 96.122C62.8214 95.3193 62.9847 94.6147 63.3114 94.008C63.638 93.4013 64.0954 92.9347 64.6834 92.608C65.2714 92.2813 65.948 92.118 66.7134 92.118C67.4507 92.118 68.1087 92.2767 68.6874 92.594C69.2754 92.9113 69.728 93.364 70.0454 93.952C70.372 94.5307 70.5354 95.198 70.5354 95.954ZM68.5054 95.394C68.496 94.89 68.314 94.4887 67.9594 94.19C67.6047 93.882 67.1707 93.728 66.6574 93.728C66.172 93.728 65.7614 93.8773 65.4254 94.176C65.0987 94.4653 64.898 94.8713 64.8234 95.394H68.5054Z" fill="#7D87AA"/>
<path d="M12.538 149.228V159H10.578V152.644L7.95997 159H6.47597L3.84397 152.644V159H1.88397V149.228H4.10997L7.21797 156.494L10.326 149.228H12.538ZM21.7978 151.244V159H19.8238V158.02C19.5718 158.356 19.2404 158.622 18.8298 158.818C18.4284 159.005 17.9898 159.098 17.5138 159.098C16.9071 159.098 16.3704 158.972 15.9038 158.72C15.4371 158.459 15.0684 158.081 14.7978 157.586C14.5364 157.082 14.4058 156.485 14.4058 155.794V151.244H16.3658V155.514C16.3658 156.13 16.5198 156.606 16.8278 156.942C17.1358 157.269 17.5558 157.432 18.0878 157.432C18.6291 157.432 19.0538 157.269 19.3618 156.942C19.6698 156.606 19.8238 156.13 19.8238 155.514V151.244H21.7978ZM25.6916 148.64V159H23.7316V148.64H25.6916ZM29.9101 152.854V156.606C29.9101 156.867 29.9708 157.059 30.0921 157.18C30.2228 157.292 30.4374 157.348 30.7361 157.348H31.6461V159H30.4141C28.7621 159 27.9361 158.197 27.9361 156.592V152.854H27.0121V151.244H27.9361V149.326H29.9101V151.244H31.6461V152.854H29.9101ZM34.0498 150.32C33.7045 150.32 33.4152 150.213 33.1818 149.998C32.9578 149.774 32.8458 149.499 32.8458 149.172C32.8458 148.845 32.9578 148.575 33.1818 148.36C33.4152 148.136 33.7045 148.024 34.0498 148.024C34.3952 148.024 34.6798 148.136 34.9038 148.36C35.1372 148.575 35.2538 148.845 35.2538 149.172C35.2538 149.499 35.1372 149.774 34.9038 149.998C34.6798 150.213 34.3952 150.32 34.0498 150.32ZM35.0158 151.244V159H33.0558V151.244H35.0158ZM39.9203 159.126C39.2857 159.126 38.7163 159.014 38.2123 158.79C37.7083 158.557 37.307 158.244 37.0083 157.852C36.719 157.46 36.5603 157.026 36.5323 156.55H38.5063C38.5437 156.849 38.6883 157.096 38.9403 157.292C39.2017 157.488 39.5237 157.586 39.9063 157.586C40.2797 157.586 40.569 157.511 40.7743 157.362C40.989 157.213 41.0963 157.021 41.0963 156.788C41.0963 156.536 40.9657 156.349 40.7043 156.228C40.4523 156.097 40.0463 155.957 39.4863 155.808C38.9077 155.668 38.4317 155.523 38.0583 155.374C37.6943 155.225 37.377 154.996 37.1063 154.688C36.845 154.38 36.7143 153.965 36.7143 153.442C36.7143 153.013 36.8357 152.621 37.0783 152.266C37.3303 151.911 37.685 151.631 38.1423 151.426C38.609 151.221 39.155 151.118 39.7803 151.118C40.7043 151.118 41.4417 151.351 41.9923 151.818C42.543 152.275 42.8463 152.896 42.9023 153.68H41.0263C40.9983 153.372 40.8677 153.129 40.6343 152.952C40.4103 152.765 40.107 152.672 39.7243 152.672C39.3697 152.672 39.0943 152.737 38.8983 152.868C38.7117 152.999 38.6183 153.181 38.6183 153.414C38.6183 153.675 38.749 153.876 39.0103 154.016C39.2717 154.147 39.6777 154.282 40.2283 154.422C40.7883 154.562 41.2503 154.707 41.6143 154.856C41.9783 155.005 42.291 155.239 42.5523 155.556C42.823 155.864 42.963 156.275 42.9723 156.788C42.9723 157.236 42.8463 157.637 42.5943 157.992C42.3517 158.347 41.997 158.627 41.5303 158.832C41.073 159.028 40.5363 159.126 39.9203 159.126ZM51.7912 154.954C51.7912 155.234 51.7726 155.486 51.7352 155.71H46.0652C46.1119 156.27 46.3079 156.709 46.6532 157.026C46.9986 157.343 47.4232 157.502 47.9272 157.502C48.6552 157.502 49.1732 157.189 49.4812 156.564H51.5952C51.3712 157.311 50.9419 157.927 50.3072 158.412C49.6726 158.888 48.8932 159.126 47.9692 159.126C47.2226 159.126 46.5506 158.963 45.9532 158.636C45.3652 158.3 44.9032 157.829 44.5672 157.222C44.2406 156.615 44.0772 155.915 44.0772 155.122C44.0772 154.319 44.2406 153.615 44.5672 153.008C44.8939 152.401 45.3512 151.935 45.9392 151.608C46.5272 151.281 47.2039 151.118 47.9692 151.118C48.7066 151.118 49.3646 151.277 49.9432 151.594C50.5312 151.911 50.9839 152.364 51.3012 152.952C51.6279 153.531 51.7912 154.198 51.7912 154.954ZM49.7612 154.394C49.7519 153.89 49.5699 153.489 49.2152 153.19C48.8606 152.882 48.4266 152.728 47.9132 152.728C47.4279 152.728 47.0172 152.877 46.6812 153.176C46.3546 153.465 46.1539 153.871 46.0792 154.394H49.7612ZM57.5199 151.132C58.4439 151.132 59.1905 151.426 59.7599 152.014C60.3292 152.593 60.6139 153.405 60.6139 154.45V159H58.6539V154.716C58.6539 154.1 58.4999 153.629 58.1919 153.302C57.8839 152.966 57.4639 152.798 56.9319 152.798C56.3905 152.798 55.9612 152.966 55.6439 153.302C55.3359 153.629 55.1819 154.1 55.1819 154.716V159H53.2219V151.244H55.1819V152.21C55.4432 151.874 55.7745 151.613 56.1759 151.426C56.5865 151.23 57.0345 151.132 57.5199 151.132ZM61.9737 155.094C61.9737 154.31 62.1277 153.615 62.4357 153.008C62.7531 152.401 63.1824 151.935 63.7237 151.608C64.2651 151.281 64.8671 151.118 65.5297 151.118C66.0337 151.118 66.5144 151.23 66.9717 151.454C67.4291 151.669 67.7931 151.958 68.0637 152.322V148.64H70.0517V159H68.0637V157.852C67.8211 158.235 67.4804 158.543 67.0417 158.776C66.6031 159.009 66.0944 159.126 65.5157 159.126C64.8624 159.126 64.2651 158.958 63.7237 158.622C63.1824 158.286 62.7531 157.815 62.4357 157.208C62.1277 156.592 61.9737 155.887 61.9737 155.094ZM68.0777 155.122C68.0777 154.646 67.9844 154.24 67.7977 153.904C67.6111 153.559 67.3591 153.297 67.0417 153.12C66.7244 152.933 66.3837 152.84 66.0197 152.84C65.6557 152.84 65.3197 152.929 65.0117 153.106C64.7037 153.283 64.4517 153.545 64.2557 153.89C64.0691 154.226 63.9757 154.627 63.9757 155.094C63.9757 155.561 64.0691 155.971 64.2557 156.326C64.4517 156.671 64.7037 156.937 65.0117 157.124C65.3291 157.311 65.6651 157.404 66.0197 157.404C66.3837 157.404 66.7244 157.315 67.0417 157.138C67.3591 156.951 67.6111 156.69 67.7977 156.354C67.9844 156.009 68.0777 155.598 68.0777 155.122Z" fill="#F6F9FE"/>
<circle cx="161" cy="155" r="5" fill="#52A6F8"/>
<circle cx="161" cy="33" r="4" fill="#20273E" stroke="#7D87AA" stroke-width="2"/>
<circle cx="161" cy="94" r="4" fill="#20273E" stroke="#7D87AA" stroke-width="2"/>
<circle cx="108" cy="33" r="18" fill="#52A6F8" fill-opacity="0.1"/>
<path d="M105.084 32.5833C106.917 32.5833 108.417 31.0833 108.417 29.25C108.417 27.4167 106.917 25.9167 105.084 25.9167C103.25 25.9167 101.75 27.4167 101.75 29.25C101.75 31.0833 103.25 32.5833 105.084 32.5833ZM108.834 31.8333C110.25 33 112.334 32.75 113.5 31.3333C114.667 29.9167 114.417 27.8333 113 26.6667C112.417 26.1667 111.667 25.9167 110.917 25.9167C110.167 25.9167 109.417 26.1667 108.834 26.6667C110.25 27.8333 110.5 29.8333 109.334 31.3333C109.25 31.5 109 31.6667 108.834 31.8333ZM117.084 39.1667C116.584 36.0833 114 33.8333 110.917 33.8333C110.167 33.8333 109.5 33.9167 108.834 34.1667C111 34.9167 112.584 36.8333 112.917 39.0833C113 39.5 112.667 40 112.167 40H112.084H116.25C116.75 40 117.084 39.6667 117.084 39.1667C117.084 39.25 117.084 39.1667 117.084 39.1667ZM105.084 33.8333C102 33.8333 99.3337 36.0833 98.9171 39.1667C98.8337 39.5833 99.1671 40.0833 99.6671 40.0833H99.7504H110.417C110.917 40.0833 111.25 39.75 111.25 39.25V39.1667C110.834 36.0833 108.167 33.8333 105.084 33.8333Z" fill="#52A6F8"/>
<circle cx="108" cy="94" r="18" fill="#52A6F8" fill-opacity="0.1"/>
<path d="M112.166 87.3333H111.166C110.833 86.3333 109.916 85.6667 108.833 85.6667H107.166C106.083 85.6667 105.166 86.3333 104.833 87.3333H103.833C102.416 87.3333 101.333 88.4167 101.333 89.8333V99.8333C101.333 101.25 102.416 102.333 103.833 102.333H112.166C113.583 102.333 114.666 101.25 114.666 99.8333V89.8333C114.666 88.4167 113.583 87.3333 112.166 87.3333ZM106.333 88.1667C106.333 87.6667 106.666 87.3333 107.166 87.3333H108.833C109.333 87.3333 109.666 87.6667 109.666 88.1667V89H106.333V88.1667ZM108.833 97.3333H105.5C105 97.3333 104.666 97 104.666 96.5C104.666 96 105 95.6667 105.5 95.6667H108.833C109.333 95.6667 109.666 96 109.666 96.5C109.666 97 109.333 97.3333 108.833 97.3333ZM110.5 94H105.5C105 94 104.666 93.6667 104.666 93.1667C104.666 92.6667 105 92.3333 105.5 92.3333H110.5C111 92.3333 111.333 92.6667 111.333 93.1667C111.333 93.6667 111 94 110.5 94Z" fill="#52A6F8"/>
<circle cx="108" cy="155" r="18" fill="#52A6F8"/>
<path d="M114.417 151.583C114.75 151.25 114.75 150.75 114.417 150.417L110.917 146.917C110.584 146.583 110.084 146.583 109.75 146.917L107.417 149.25L112.167 154L114.417 151.583ZM102.167 160H105.667C105.917 160 106.084 159.917 106.25 159.75L110.834 155.167L106.167 150.417L101.584 155C101.417 155.167 101.334 155.417 101.334 155.667V159.167C101.334 159.667 101.667 160 102.167 160ZM115.5 161.667H100.5C100 161.667 99.667 162 99.667 162.5C99.667 163 100 163.333 100.5 163.333H115.5C116 163.333 116.334 163 116.334 162.5C116.334 162 116 161.667 115.5 161.667Z" fill="#F6F9FE"/>
</svg>
