<svg width="24" height="24" viewBox="0 0 24 24" fill="none" xmlns="http://www.w3.org/2000/svg">
<path opacity="0.2" d="M7.00033 12.8333C10.222 12.8333 12.8337 10.2217 12.8337 7C12.8337 3.77834 10.222 1.16666 7.00033 1.16666C3.77866 1.16666 1.16699 3.77834 1.16699 7C1.16699 10.2217 3.77866 12.8333 7.00033 12.8333Z" fill="#7D87AA"/>
<path d="M6.99954 9.91667C6.92292 9.91671 6.84705 9.90165 6.77625 9.87235C6.70546 9.84305 6.64114 9.80008 6.58696 9.74591C6.53278 9.69173 6.48982 9.62741 6.46052 9.55662C6.43122 9.48582 6.41616 9.40995 6.4162 9.33333V7C6.4162 6.84529 6.47766 6.69692 6.58706 6.58752C6.69645 6.47812 6.84483 6.41667 6.99954 6.41667C7.15425 6.41667 7.30262 6.47812 7.41202 6.58752C7.52141 6.69692 7.58287 6.84529 7.58287 7V9.33333C7.58291 9.40995 7.56786 9.48582 7.53856 9.55662C7.50926 9.62741 7.46629 9.69173 7.41211 9.74591C7.35794 9.80008 7.29361 9.84305 7.22282 9.87235C7.15203 9.90165 7.07615 9.91671 6.99954 9.91667ZM6.99954 5.25C6.92333 5.24906 6.84804 5.23319 6.77794 5.20329C6.70721 5.17379 6.64208 5.13237 6.58537 5.08083C6.53103 5.02653 6.48808 4.96192 6.45903 4.89081C6.42998 4.81969 6.41542 4.74348 6.4162 4.66667C6.41407 4.59015 6.43008 4.51421 6.46292 4.44507C6.49241 4.37434 6.53383 4.3092 6.58537 4.2525C6.64113 4.19973 6.70649 4.15814 6.77792 4.13C6.91982 4.07132 7.07921 4.07132 7.22111 4.13C7.29247 4.15828 7.35781 4.19985 7.41366 4.2525C7.52015 4.36435 7.58058 4.51224 7.58287 4.66667C7.58362 4.74348 7.56904 4.81967 7.53999 4.89078C7.51094 4.96189 7.468 5.02649 7.41368 5.08081C7.35936 5.13513 7.29476 5.17807 7.22365 5.20712C7.15254 5.23617 7.07635 5.25075 6.99954 5.25Z" fill="#7D87AA"/>
</svg>
