<svg width="18" height="18" viewBox="0 0 18 18" fill="none" xmlns="http://www.w3.org/2000/svg">
<path d="M15 4.5H12V3.75C11.9986 2.5079 10.9921 1.50137 9.75 1.5H8.25C7.0079 1.50137 6.00137 2.5079 6 3.75V4.5H3C2.58577 4.5 2.25 4.83577 2.25 5.25C2.25 5.66423 2.58577 6 3 6H6.75H11.25C11.2501 6 11.2503 6 11.2504 6H15C15.4142 6 15.75 5.66423 15.75 5.25C15.75 4.83577 15.4142 4.5 15 4.5ZM7.5 4.5V3.75C7.50041 3.33596 7.83596 3.00041 8.25 3H9.75C10.164 3.00041 10.4996 3.33596 10.5 3.75V4.5H7.5Z" fill="#52A6F8" fill-opacity="0.5"/>
<path d="M3.75 6V14.25C3.75137 15.4921 4.7579 16.4986 6 16.5H12C13.2421 16.4986 14.2486 15.4921 14.25 14.25V6H3.75Z" fill="#52A6F8"/>
</svg>
