<svg width="210" height="198" viewBox="0 0 210 198" fill="none" xmlns="http://www.w3.org/2000/svg">
<path d="M104.5 101.5C104.699 101.5 104.89 101.421 105.03 101.28C105.171 101.14 105.25 100.949 105.25 100.75L105.25 92.0575L106.968 93.7825C107.109 93.9237 107.3 94.0031 107.5 94.0031C107.7 94.0031 107.891 93.9237 108.033 93.7825C108.174 93.6413 108.253 93.4497 108.253 93.25C108.253 93.0503 108.174 92.8587 108.033 92.7175L105.033 89.7175C104.927 89.6134 104.793 89.5429 104.648 89.5149C104.502 89.4869 104.352 89.5026 104.215 89.56C104.078 89.6163 103.961 89.7118 103.878 89.8346C103.795 89.9574 103.751 90.1019 103.75 90.25L103.75 100.75C103.75 100.949 103.829 101.14 103.97 101.28C104.11 101.421 104.301 101.5 104.5 101.5ZM101.785 104.44C101.922 104.384 102.039 104.288 102.122 104.165C102.205 104.043 102.249 103.898 102.25 103.75L102.25 93.25C102.25 93.0511 102.171 92.8603 102.03 92.7197C101.89 92.579 101.699 92.5 101.5 92.5C101.301 92.5 101.11 92.579 100.97 92.7197C100.829 92.8603 100.75 93.0511 100.75 93.25L100.75 101.942L99.0326 100.217C98.9629 100.147 98.8799 100.091 98.7885 100.053C98.6971 100.015 98.5991 99.9956 98.5001 99.9956C98.4011 99.9956 98.3031 100.015 98.2117 100.053C98.1203 100.091 98.0373 100.147 97.9676 100.217C97.8973 100.287 97.8415 100.37 97.8034 100.462C97.7654 100.553 97.7458 100.651 97.7458 100.75C97.7458 100.849 97.7654 100.947 97.8034 101.038C97.8415 101.13 97.8973 101.213 97.9676 101.282L100.968 104.282C101.073 104.387 101.207 104.457 101.352 104.485C101.498 104.513 101.649 104.497 101.785 104.44Z" fill="#52A6F8"/>
<g filter="url(#filter0_d_2974_524)">
<rect x="80.5" y="28" width="45" height="45" rx="10" fill="#28314E"/>
</g>
<path d="M103 50.5C105.625 50.5 107.687 48.4375 107.687 45.8125C107.687 43.1875 105.625 41.125 103 41.125C100.375 41.125 98.3124 43.1875 98.3124 45.8125C98.3124 48.4375 100.375 50.5 103 50.5ZM111.719 58.75C110.5 53.9687 105.625 50.9688 100.844 52.1875C97.6562 53.0312 95.1249 55.4687 94.2812 58.75C94.1874 59.2188 94.4687 59.7812 95.0312 59.875C95.1249 59.875 95.2187 59.875 95.2187 59.875H110.781C111.344 59.875 111.719 59.5 111.719 58.9375C111.719 58.8438 111.719 58.75 111.719 58.75Z" fill="#F6F9FE"/>
<g filter="url(#filter1_d_2974_524)">
<rect x="28" y="121" width="45" height="45" rx="10" fill="#28314E"/>
</g>
<path d="M47.2187 143.031C49.2812 143.031 50.9687 141.344 50.9687 139.281C50.9687 137.219 49.2812 135.531 47.2187 135.531C45.1562 135.531 43.4687 137.219 43.4687 139.281C43.4687 141.344 45.1562 143.031 47.2187 143.031ZM51.4375 142.188C53.0312 143.5 55.375 143.219 56.6875 141.625C58 140.031 57.7187 137.688 56.125 136.375C55.4687 135.813 54.625 135.531 53.7812 135.531C52.9375 135.531 52.0937 135.813 51.4375 136.375C53.0312 137.688 53.3125 139.938 52 141.625C51.9062 141.813 51.625 142 51.4375 142.188ZM60.7187 150.438C60.1562 146.969 57.25 144.438 53.7812 144.438C52.9375 144.438 52.1875 144.531 51.4375 144.813C53.875 145.656 55.6562 147.813 56.0312 150.344C56.125 150.813 55.75 151.375 55.1875 151.375H55.0937H59.7812C60.3437 151.375 60.7187 151 60.7187 150.438C60.7187 150.531 60.7187 150.438 60.7187 150.438ZM47.2187 144.438C43.75 144.438 40.75 146.969 40.2812 150.438C40.1875 150.906 40.5625 151.469 41.125 151.469H41.2187H53.2187C53.7812 151.469 54.1562 151.094 54.1562 150.531V150.438C53.6875 146.969 50.6875 144.438 47.2187 144.438Z" fill="#F6F9FE"/>
<g filter="url(#filter2_d_2974_524)">
<rect x="80.5" y="121" width="45" height="45" rx="10" fill="#28314E"/>
</g>
<path d="M99.7187 143.031C101.781 143.031 103.469 141.344 103.469 139.281C103.469 137.219 101.781 135.531 99.7187 135.531C97.6562 135.531 95.9687 137.219 95.9687 139.281C95.9687 141.344 97.6562 143.031 99.7187 143.031ZM103.937 142.188C105.531 143.5 107.875 143.219 109.187 141.625C110.5 140.031 110.219 137.688 108.625 136.375C107.969 135.813 107.125 135.531 106.281 135.531C105.437 135.531 104.594 135.813 103.937 136.375C105.531 137.688 105.812 139.938 104.5 141.625C104.406 141.813 104.125 142 103.937 142.188ZM113.219 150.438C112.656 146.969 109.75 144.438 106.281 144.438C105.437 144.438 104.687 144.531 103.937 144.813C106.375 145.656 108.156 147.813 108.531 150.344C108.625 150.813 108.25 151.375 107.687 151.375H107.594H112.281C112.844 151.375 113.219 151 113.219 150.438C113.219 150.531 113.219 150.438 113.219 150.438ZM99.7187 144.438C96.25 144.438 93.25 146.969 92.7812 150.438C92.6875 150.906 93.0625 151.469 93.625 151.469H93.7187H105.719C106.281 151.469 106.656 151.094 106.656 150.531V150.438C106.187 146.969 103.187 144.438 99.7187 144.438Z" fill="#F6F9FE"/>
<g filter="url(#filter3_d_2974_524)">
<rect x="133" y="121" width="45" height="45" rx="10" fill="#28314E"/>
</g>
<path d="M152.219 143.031C154.281 143.031 155.969 141.344 155.969 139.281C155.969 137.219 154.281 135.531 152.219 135.531C150.156 135.531 148.469 137.219 148.469 139.281C148.469 141.344 150.156 143.031 152.219 143.031ZM156.437 142.188C158.031 143.5 160.375 143.219 161.687 141.625C163 140.031 162.719 137.688 161.125 136.375C160.469 135.813 159.625 135.531 158.781 135.531C157.937 135.531 157.094 135.813 156.437 136.375C158.031 137.688 158.312 139.938 157 141.625C156.906 141.813 156.625 142 156.437 142.188ZM165.719 150.438C165.156 146.969 162.25 144.438 158.781 144.438C157.937 144.438 157.187 144.531 156.437 144.813C158.875 145.656 160.656 147.813 161.031 150.344C161.125 150.813 160.75 151.375 160.187 151.375H160.094H164.781C165.344 151.375 165.719 151 165.719 150.438C165.719 150.531 165.719 150.438 165.719 150.438ZM152.219 144.438C148.75 144.438 145.75 146.969 145.281 150.438C145.187 150.906 145.562 151.469 146.125 151.469H146.219H158.219C158.781 151.469 159.156 151.094 159.156 150.531V150.438C158.687 146.969 155.687 144.438 152.219 144.438Z" fill="#F6F9FE"/>
<defs>
<filter id="filter0_d_2974_524" x="52.5" y="0" width="105" height="105" filterUnits="userSpaceOnUse" color-interpolation-filters="sRGB">
<feFlood flood-opacity="0" result="BackgroundImageFix"/>
<feColorMatrix in="SourceAlpha" type="matrix" values="0 0 0 0 0 0 0 0 0 0 0 0 0 0 0 0 0 0 127 0" result="hardAlpha"/>
<feOffset dx="2" dy="2"/>
<feGaussianBlur stdDeviation="15"/>
<feComposite in2="hardAlpha" operator="out"/>
<feColorMatrix type="matrix" values="0 0 0 0 0.105882 0 0 0 0 0.12549 0 0 0 0 0.192157 0 0 0 1 0"/>
<feBlend mode="normal" in2="BackgroundImageFix" result="effect1_dropShadow_2974_524"/>
<feBlend mode="normal" in="SourceGraphic" in2="effect1_dropShadow_2974_524" result="shape"/>
</filter>
<filter id="filter1_d_2974_524" x="0" y="93" width="105" height="105" filterUnits="userSpaceOnUse" color-interpolation-filters="sRGB">
<feFlood flood-opacity="0" result="BackgroundImageFix"/>
<feColorMatrix in="SourceAlpha" type="matrix" values="0 0 0 0 0 0 0 0 0 0 0 0 0 0 0 0 0 0 127 0" result="hardAlpha"/>
<feOffset dx="2" dy="2"/>
<feGaussianBlur stdDeviation="15"/>
<feComposite in2="hardAlpha" operator="out"/>
<feColorMatrix type="matrix" values="0 0 0 0 0.105882 0 0 0 0 0.12549 0 0 0 0 0.192157 0 0 0 1 0"/>
<feBlend mode="normal" in2="BackgroundImageFix" result="effect1_dropShadow_2974_524"/>
<feBlend mode="normal" in="SourceGraphic" in2="effect1_dropShadow_2974_524" result="shape"/>
</filter>
<filter id="filter2_d_2974_524" x="52.5" y="93" width="105" height="105" filterUnits="userSpaceOnUse" color-interpolation-filters="sRGB">
<feFlood flood-opacity="0" result="BackgroundImageFix"/>
<feColorMatrix in="SourceAlpha" type="matrix" values="0 0 0 0 0 0 0 0 0 0 0 0 0 0 0 0 0 0 127 0" result="hardAlpha"/>
<feOffset dx="2" dy="2"/>
<feGaussianBlur stdDeviation="15"/>
<feComposite in2="hardAlpha" operator="out"/>
<feColorMatrix type="matrix" values="0 0 0 0 0.105882 0 0 0 0 0.12549 0 0 0 0 0.192157 0 0 0 1 0"/>
<feBlend mode="normal" in2="BackgroundImageFix" result="effect1_dropShadow_2974_524"/>
<feBlend mode="normal" in="SourceGraphic" in2="effect1_dropShadow_2974_524" result="shape"/>
</filter>
<filter id="filter3_d_2974_524" x="105" y="93" width="105" height="105" filterUnits="userSpaceOnUse" color-interpolation-filters="sRGB">
<feFlood flood-opacity="0" result="BackgroundImageFix"/>
<feColorMatrix in="SourceAlpha" type="matrix" values="0 0 0 0 0 0 0 0 0 0 0 0 0 0 0 0 0 0 127 0" result="hardAlpha"/>
<feOffset dx="2" dy="2"/>
<feGaussianBlur stdDeviation="15"/>
<feComposite in2="hardAlpha" operator="out"/>
<feColorMatrix type="matrix" values="0 0 0 0 0.105882 0 0 0 0 0.12549 0 0 0 0 0.192157 0 0 0 1 0"/>
<feBlend mode="normal" in2="BackgroundImageFix" result="effect1_dropShadow_2974_524"/>
<feBlend mode="normal" in="SourceGraphic" in2="effect1_dropShadow_2974_524" result="shape"/>
</filter>
</defs>
</svg>
